<?xml version="1.0"?>
<svg xmlns:rdf="http://www.w3.org/1999/02/22-rdf-syntax-ns#" xmlns="http://www.w3.org/2000/svg" xmlns:cc="http://web.resource.org/cc/" xmlns:dc="http://purl.org/dc/elements/1.1/" xmlns:svg="http://www.w3.org/2000/svg" id="svg3198" viewBox="0 0 380.09 287.01" version="1.0">
  <defs id="defs3200">
    <filter id="filter3161" y="-.32618" width="1.598" x="-.299" height="1.6524">
      <feGaussianBlur id="feGaussianBlur3163" stdDeviation="1.8152504"/>
    </filter>
    <filter id="filter3151" y="-.21368" width="2.1559" x="-.57794" height="1.4274">
      <feGaussianBlur id="feGaussianBlur3153" stdDeviation="7.7593533"/>
    </filter>
    <filter id="filter3139" y="-.21154" width="2.1883" x="-.59416" height="1.4231">
      <feGaussianBlur id="feGaussianBlur3141" stdDeviation="2.7541854"/>
    </filter>
    <filter id="filter3025" y="-.24394" width="1.2293" x="-.11466" height="1.4879">
      <feGaussianBlur id="feGaussianBlur3027" stdDeviation="1.2705469"/>
    </filter>
    <filter id="filter3017" y="-.15041" width="1.4143" x="-.20715" height="1.3008">
      <feGaussianBlur id="feGaussianBlur3019" stdDeviation="1.8095583"/>
    </filter>
    <filter id="filter3039" y="-.55951" width="1.1642" x="-.082118" height="2.119">
      <feGaussianBlur id="feGaussianBlur3041" stdDeviation="1.7193369"/>
    </filter>
    <filter id="filter3005" y="-.15476" width="1.3145" x="-.15726" height="1.3095">
      <feGaussianBlur id="feGaussianBlur3007" stdDeviation="7.5184639"/>
    </filter>
    <filter id="filter3047" y="-.18024" width="1.275" x="-.13751" height="1.3605">
      <feGaussianBlur id="feGaussianBlur3049" stdDeviation="8.0016376"/>
    </filter>
  </defs>
  <g id="layer1" transform="translate(0 5.1713)">
    <g id="g3171" transform="translate(331.02 -408.76)">
      <path id="path2782" stroke-linejoin="round" d="m23.325 578.57c0 38.82-38.207 59.77-85.283 59.77-47.072 0-85.282-4.91-85.282-59.77 0-57.78 67.503-103.36 85.282-59.77 20.487 50.22 79.845 45.79 85.283 59.77z" transform="translate(1.4578 -77.265)" stroke="#2b0000" stroke-linecap="round" stroke-width="3" fill="#ffe40c"/>
      <path id="path3045" opacity=".9" d="m-84.406 516.69c-5.635-0.61-18.724 4.56-29.284 16.25s-18.4 28.39-18.4 45.62c0 23.91 5.96 31.32 16.87 37.03 10.91 5.72 30.241 7.6 53.251 7.6 21.288 0 39.905-4.97 52-12.88 10.017-6.55 15.815-14.17 17.532-24.78-0.7964-0.32-0.9617-0.48-2.0005-0.84-5.7773-2.03-14.748-4.46-24.656-8.25-19.816-7.58-44.67-21.91-56.906-51.91-2.834-6.95-4.666-7.44-8.406-7.84z" transform="translate(1.4291 -90.253)" filter="url(#filter3047)" fill="#fff"/>
      <path id="path2785" stroke-linejoin="round" d="m34.988 494.01c0.002 10.47-8.483 18.96-18.952 18.96-10.468 0-18.954-8.49-18.952-18.96-0.0021-10.46 8.4836-18.95 18.952-18.95 10.469 0 18.954 8.49 18.952 18.95z" transform="translate(0 5.8313)" stroke="#2b0000" stroke-linecap="round" stroke-width="3" fill="#2b0000"/>
      <g id="g2776" transform="matrix(.38794 0 0 .38794 -27.16 335.85)">
        <path id="path2188" opacity=".9" stroke-linejoin="round" d="m-74.349 356.98c0.007 31.4-21.207 56.87-47.381 56.87-26.17 0-47.39-25.47-47.38-56.87-0.01-31.41 21.21-56.87 47.38-56.87 26.174 0 47.388 25.46 47.381 56.87z" stroke="#000" stroke-linecap="round" stroke-width="3" fill="#fff"/>
        <path id="path2186" opacity=".9" stroke-linejoin="round" d="m-94.759 379.57c0 10.07-9.141 18.23-20.411 18.23s-20.41-8.16-20.41-18.23c0-10.06 9.14-18.22 20.41-18.22s20.411 8.16 20.411 18.22z" transform="matrix(1.3496 0 0 1.8715 35.155 -335.9)" stroke="#000" stroke-linecap="round" stroke-width="3"/>
        <path id="path2190" opacity=".9" d="m-99.132 358.31c0 7.32-7.858 13.25-17.538 13.25-9.69 0-17.55-5.93-17.55-13.25s7.86-13.25 17.55-13.25c9.68 0 17.538 5.93 17.538 13.25z" fill="#fff" transform="translate(11.663 -7.2891)"/>
        <path id="path2192" opacity=".3" d="m-152.82 314.13c-9.96 10.42-16.28 25.74-16.28 42.84 0 31.39 21.22 56.88 47.38 56.88 21.76 0 40.105-17.65 45.653-41.66-8.32 8.68-19.211 13.94-31.093 13.94-26.15 0-47.38-25.46-47.38-56.85 0-5.24 0.61-10.33 1.72-15.15z" fill="#fff"/>
      </g>
      <path id="path2787" stroke-linejoin="round" d="m-141.81 515.61c33.28 19.99 31.56 63.53 7.32 103.88-24.25 40.36-48.13 70.58-95.16 42.33-49.52-29.76-53.83-111.1-7.31-103.89 53.6 8.31 80.37-44.86 95.15-42.32z" stroke="#2b0000" stroke-linecap="round" stroke-width="3" fill="#ffe40c"/>
      <path id="path2811" opacity=".9" d="m-144.12 537.81c-4.52 3.83-10.87 9.84-18.94 16.16-17.09 13.38-43.48 28.01-76.85 22.84-6.3-0.97-5.83-0.3-7.31 1.66s-3.59 7.97-3.06 16.34c1.05 16.75 12.08 39.58 30.47 50.63 19.71 11.84 26.95 10.37 36.34 4.65s20.81-20.83 32.59-40.43c10.67-17.75 15.73-35.62 15.22-49.04-0.37-9.84-2.78-17-8.46-22.81z" transform="translate(-6.9355 -15.283)" filter="url(#filter3005)" fill="#fff"/>
      <path id="path2789" stroke-linejoin="round" d="m-257.41 579.98c-27.75 7.36-60.97-36.33-59.57-64.05 13.93 17.9 76.07 25.76 59.57 64.05z" stroke="#2b0000" stroke-linecap="round" stroke-width="3" fill="#280b0b"/>
      <path id="path2796" stroke-linejoin="round" d="m-113.71 709.77c0 7.25-17.3 13.12-38.63 13.12-21.34 0-38.64-5.87-38.64-13.12 0-7.24 17.3-13.12 38.64-13.12 21.33 0 38.63 5.88 38.63 13.12z" transform="matrix(-.030544 .85839 -1.7199 -.050303 1028.7 805.54)" stroke="#2b0000" stroke-linecap="round" stroke-width="3" fill="#ffe40c"/>
      <path id="path2794" stroke-linejoin="round" d="m-113.71 709.77c0 7.25-17.3 13.12-38.63 13.12-21.34 0-38.64-5.87-38.64-13.12 0-7.24 17.3-13.12 38.64-13.12 21.33 0 38.63 5.88 38.63 13.12z" transform="matrix(.99528 0 0 1.2639 28.033 -303.35)" stroke="#2b0000" stroke-linecap="round" stroke-width="3" fill="#ffe40c"/>
      <path id="path3033" opacity=".9" d="m-152.34 706.09c-9.8 0-18.68 1.44-24.28 3.35-0.34 0.11-0.54 0.22-0.85 0.34 0.31 0.12 0.51 0.23 0.85 0.34 5.6 1.91 14.48 3.35 24.28 3.35 9.79 0 18.67-1.44 24.28-3.35 0.34-0.11 0.53-0.22 0.84-0.34-0.31-0.12-0.5-0.23-0.84-0.34-5.61-1.91-14.49-3.35-24.28-3.35z" transform="matrix(.99528 0 0 1.2639 28.602 -296.75)" filter="url(#filter3039)" fill="#fff"/>
      <path id="path2798" stroke-linejoin="round" d="m-58.313 598.98c0 12.07-10.928 2.91-22.596 2.91-11.669 0-19.681 9.16-19.681-2.91s9.47-21.87 21.138-21.87c11.669 0 21.139 9.8 21.139 21.87z" stroke="#2b0000" stroke-linecap="round" stroke-width="3" fill="#ffe40c"/>
      <path id="path2803" stroke-linejoin="round" d="m15.02 532.43c-16.98 17.17-20.266 16.91-41.432 16.91-21.167 0-38.346-12.69-38.346-28.32s3.318 10.25 21.366 19.41c14.368 7.3 34.36 16.02 58.412-8z" stroke="#2b0000" stroke-linecap="round" stroke-width="2.1169" fill="#f55"/>
      <path id="path2806" stroke-linejoin="round" d="m-64.194 444.34c0 5.57-4.885-3.02-11.206-3.02-6.322 0-11.699 8.59-11.699 3.02 0-5.58 5.131-10.11 11.453-10.11s11.452 4.53 11.452 10.11z" stroke="#000" stroke-linecap="round" stroke-width="1.705"/>
      <path id="path3011" opacity=".9" d="m-152.34 704.56c-9.94 0-18.95 1.43-24.78 3.41-1.77 0.6-3.09 1.23-4.16 1.81 1.07 0.59 2.39 1.21 4.16 1.81 5.83 1.99 14.84 3.41 24.78 3.41 9.93 0 18.94-1.42 24.78-3.41 1.77-0.6 3.08-1.22 4.15-1.81-1.07-0.58-2.38-1.21-4.15-1.81-5.84-1.98-14.85-3.41-24.78-3.41z" transform="matrix(-.030544 .85839 -1.7199 -.050303 1035 808.04)" filter="url(#filter3017)" fill="#fff"/>
      <path id="path2801" stroke-linejoin="round" d="m-145.78 668.95c0 12.07-10.93 2.92-22.6 2.92s-19.68 9.15-19.68-2.92 9.47-21.86 21.14-21.86 21.14 9.79 21.14 21.86z" stroke="#2b0000" stroke-linecap="round" stroke-width="3" fill="#ffe40c"/>
      <path id="path3023" opacity=".9" d="m-166.91 655.81c-5.38 0-10.01 3.58-11.71 8.78 2.78-0.75 6.29-1.43 10.24-1.43 5.69 0 10.02 1.18 13.35 2.15-1.49-5.6-6.26-9.5-11.88-9.5z" transform="matrix(.98863 .15035 -.15035 .98863 104.15 38.065)" filter="url(#filter3025)" fill="#fff"/>
      <path id="path3029" opacity=".9" d="m-166.91 655.81c-5.38 0-10.01 3.58-11.71 8.78 2.78-0.75 6.29-1.43 10.24-1.43 5.69 0 10.02 1.18 13.35 2.15-1.49-5.6-6.26-9.5-11.88-9.5z" transform="matrix(.98863 .15035 -.15035 .98863 192.18 -31.146)" filter="url(#filter3025)" fill="#fff"/>
      <path id="path2792" stroke-linejoin="round" d="m-161.03 600.51c-59.18-26.52 14.77-141.68 66.44-162.5-20.87 40.46 26.913 204.34-66.44 162.5z" stroke="#2b0000" stroke-linecap="round" stroke-width="6.0211" fill="#280b0b"/>
      <path id="path3053" opacity=".9" d="m-292.91 546.03c1.5 2.25 2.99 4.52 4.72 6.53 6.9 8.01 14.46 12.84 20.6 14.44-0.16-1.47-0.69-2.69-1.5-4.09-1.85-3.17-6.62-7.34-13.35-11.32-3.19-1.88-6.77-3.71-10.47-5.56z" transform="matrix(.84541 .53412 -.53412 .84541 222.29 210.79)" filter="url(#filter3139)" fill="#fff"/>
      <path id="path3061" opacity=".9" d="m-125.25 495.72c-8.51 10.14-16.45 21.46-22.06 32.56-7.56 14.96-11.17 29.39-10.85 37.6 0.33 8.2 0.31 8.95 7.25 12.06 9.28 4.16 14.97 4.73 16.88 4.59 1.9-0.14 0.61 0.33 1.34-0.5 1.47-1.66 6.32-14.88 7.38-33.34 0.9-15.8 0.31-34.58 0.06-52.97z" transform="matrix(.99914 -.041425 .041425 .99914 -47.177 -9.0346)" filter="url(#filter3151)" fill="#fff"/>
      <path id="path3155" opacity=".9" filter="url(#filter3161)" d="m31.57 493.22c0.001 3.69-3.261 6.68-7.286 6.68-4.024 0-7.286-2.99-7.285-6.68-0.001-3.69 3.261-6.68 7.285-6.68 4.025 0 7.287 2.99 7.286 6.68z" fill="#fff"/>
    </g>
  </g>
  <metadata>
    <rdf:RDF>
      <cc:Work>
        <dc:format>image/svg+xml</dc:format>
        <dc:type rdf:resource="http://purl.org/dc/dcmitype/StillImage"/>
        <cc:license rdf:resource="http://creativecommons.org/licenses/publicdomain/"/>
        <dc:publisher>
          <cc:Agent rdf:about="http://openclipart.org/">
            <dc:title>Openclipart</dc:title>
          </cc:Agent>
        </dc:publisher>
        <dc:title>Perro Amarillo</dc:title>
        <dc:date>2007-08-27T14:06:15</dc:date>
        <dc:description>animal, animal, caricature, caricature, cartoon, cartoon, clip art, clipart, dog, dog, how i did it, image, media, png, public domain, svg, yellow, yellow, </dc:description>
        <dc:source>http://openclipart.org/detail/5016/perro-amarillo-by-egonpin-5016</dc:source>
        <dc:creator>
          <cc:Agent>
            <dc:title>egonpin</dc:title>
          </cc:Agent>
        </dc:creator>
        <dc:subject>
          <rdf:Bag>
            <rdf:li>animal</rdf:li>
            <rdf:li>caricature</rdf:li>
            <rdf:li>cartoon</rdf:li>
            <rdf:li>clip art</rdf:li>
            <rdf:li>clipart</rdf:li>
            <rdf:li>dog</rdf:li>
            <rdf:li>how i did it</rdf:li>
            <rdf:li>image</rdf:li>
            <rdf:li>media</rdf:li>
            <rdf:li>png</rdf:li>
            <rdf:li>public domain</rdf:li>
            <rdf:li>svg</rdf:li>
            <rdf:li>yellow</rdf:li>
          </rdf:Bag>
        </dc:subject>
      </cc:Work>
      <cc:License rdf:about="http://creativecommons.org/licenses/publicdomain/">
        <cc:permits rdf:resource="http://creativecommons.org/ns#Reproduction"/>
        <cc:permits rdf:resource="http://creativecommons.org/ns#Distribution"/>
        <cc:permits rdf:resource="http://creativecommons.org/ns#DerivativeWorks"/>
      </cc:License>
    </rdf:RDF>
  </metadata>
</svg>
